<svg width="22" height="23" viewBox="0 0 22 23" fill="none" xmlns="http://www.w3.org/2000/svg">
<path d="M11 11.5C14.4719 11.5 17.2857 8.92598 17.2857 5.75C17.2857 2.57402 14.4719 0 11 0C7.52812 0 4.71429 2.57402 4.71429 5.75C4.71429 8.92598 7.52812 11.5 11 11.5ZM15.4 12.9375H14.5799C13.4897 13.3957 12.2768 13.6562 11 13.6562C9.72321 13.6562 8.51518 13.3957 7.42009 12.9375H6.6C2.95625 12.9375 0 15.6418 0 18.975V20.8438C0 22.0342 1.0558 23 2.35714 23H19.6429C20.9442 23 22 22.0342 22 20.8438V18.975C22 15.6418 19.0437 12.9375 15.4 12.9375Z" fill="black"/>
</svg>
